<svg width="105" height="16" viewBox="0 0 105 16" fill="none" xmlns="http://www.w3.org/2000/svg">
<path d="M6.26103 3.29142L3.40947 9.66721L9.42253 10.3446L6.26103 3.29142ZM3.40947 9.66721L0.723221 15.6559H0L6.90159 0.248667H7.62481L14.5264 15.6559H11.7988L9.42253 10.3446L3.40947 9.66721Z" fill="#181A20"/>
<path d="M17.2437 10.5381C17.2437 11.8283 17.5054 12.9178 18.0289 13.8066C18.5592 14.6955 19.341 15.208 20.3742 15.3441C20.505 15.3585 20.6359 15.3656 20.7668 15.3656C21.2627 15.3656 21.7655 15.2581 22.2752 15.0431C22.7849 14.8209 23.2567 14.4697 23.6907 13.9894L24.1556 14.4732C23.6597 14.9463 23.088 15.3191 22.4405 15.5914C21.7999 15.8638 21.1112 16 20.3742 16C19.3754 16 18.4628 15.7563 17.6363 15.2689C16.8166 14.7743 16.1623 14.1149 15.6732 13.2906C15.1842 12.4591 14.9397 11.5416 14.9397 10.5381C14.9397 9.53461 15.1842 8.62071 15.6732 7.79641C16.1623 6.96494 16.8166 6.30549 17.6363 5.81808C18.4628 5.3235 19.3754 5.07621 20.3742 5.07621C21.1112 5.07621 21.7999 5.2124 22.4405 5.48478C23.088 5.75715 23.6597 6.13347 24.1556 6.61371L23.6907 7.09754C23.2567 6.61013 22.7539 6.24457 22.1822 6.00086C21.7345 5.80733 21.2627 5.71056 20.7668 5.71056C20.6359 5.71056 20.505 5.71773 20.3742 5.73207C19.341 5.86826 18.5592 6.38076 18.0289 7.26957C17.5054 8.15838 17.2437 9.24789 17.2437 10.5381Z" fill="#181A20"/>
<path d="M31.1605 5.78583C30.4993 5.78583 29.9345 6.01161 29.4661 6.46319C28.9977 6.90759 28.6878 7.47027 28.5362 8.15121V15.6559H26.2219V0.237916H28.5362V6.59221C29.163 5.71773 30.0378 5.21957 31.1605 5.09771C31.3327 5.08338 31.5014 5.07621 31.6667 5.07621C32.3004 5.07621 32.8721 5.17656 33.3818 5.37726C34.0293 5.62813 34.539 6.04028 34.9109 6.61371C35.2828 7.18714 35.4688 7.93259 35.4688 8.85008V15.6559H33.1545V8.85008C33.1545 8.51319 33.1373 8.16197 33.1029 7.79641C33.0684 7.42368 32.9685 7.07962 32.8032 6.76424C32.631 6.47035 32.3969 6.23382 32.1007 6.05462C31.8045 5.87542 31.4911 5.78583 31.1605 5.78583Z" fill="#181A20"/>
<path d="M37.8968 15.6559V5.43102H40.2008V15.6559H37.8968ZM39.0539 0.237916C39.4396 0.237916 39.7668 0.381272 40.0354 0.667986C40.311 0.947532 40.4487 1.288 40.4487 1.6894C40.4487 2.09797 40.311 2.44561 40.0354 2.73232C39.7668 3.01187 39.4396 3.15164 39.0539 3.15164C38.6613 3.15164 38.3273 3.01187 38.0518 2.73232C37.7831 2.44561 37.6488 2.09797 37.6488 1.6894C37.6488 1.288 37.7831 0.947532 38.0518 0.667986C38.3273 0.381272 38.6613 0.237916 39.0539 0.237916Z" fill="#181A20"/>
<path d="M42.6287 15.6559V0.237916H44.9327V15.6559H42.6287Z" fill="#181A20"/>
<path d="M47.4226 15.6559V0.237916H49.7266V15.6559H47.4226Z" fill="#181A20"/>
<path d="M61.1948 12.5917H61.9077C61.5013 13.6095 60.8642 14.4338 59.9963 15.0646C59.1354 15.6882 58.1539 16 57.0518 16C56.0875 16 55.2059 15.7563 54.4069 15.2689C53.6148 14.7743 52.9811 14.1149 52.5058 13.2906C52.0375 12.4591 51.8033 11.5416 51.8033 10.5381C51.8033 9.53461 52.0375 8.62071 52.5058 7.79641C52.9811 6.96494 53.6148 6.30549 54.4069 5.81808C55.2059 5.3235 56.0875 5.07621 57.0518 5.07621C58.0161 5.07621 58.8943 5.3235 59.6864 5.81808C60.4854 6.30549 61.1191 6.96494 61.5874 7.79641C62.0627 8.62071 62.3003 9.53461 62.3003 10.5381C62.3003 10.6528 62.2969 10.7675 62.29 10.8822H54.1176C54.1865 12.3086 54.5033 13.3766 55.0681 14.0862C55.6398 14.7886 56.3217 15.1757 57.1138 15.2474C57.224 15.2545 57.3308 15.2581 57.4341 15.2581C58.116 15.2581 58.8047 15.0431 59.5004 14.613C60.1961 14.183 60.7609 13.5092 61.1948 12.5917ZM54.1176 10.194H59.9757C59.9068 8.93251 59.5934 7.87884 59.0355 7.03303C58.4845 6.18722 57.8232 5.76432 57.0518 5.76432C56.2735 5.76432 55.6088 6.18722 55.0578 7.03303C54.5067 7.87884 54.1934 8.93251 54.1176 10.194Z" fill="#181A20"/>
<path d="M76.1005 15.8982C77.497 15.8982 78.8089 15.5458 80.0362 14.8632C81.2846 14.1806 82.3002 13.2558 83.0831 12.1328L82.4483 11.7144C80.9883 13.8283 78.6608 15.1275 76.1428 15.1275C74.1962 15.1275 72.6939 14.4228 71.6359 13.0356C70.5991 11.6484 70.2394 9.95286 70.5779 7.94908C70.9165 5.9453 71.8263 4.24979 73.3287 2.86255C74.831 1.47531 76.566 0.770686 78.5339 0.770686C81.0095 0.770686 82.8715 2.0258 83.7814 4.02959L84.4585 3.65526C83.4428 1.43127 81.2846 0 78.555 0C76.4179 0 74.5347 0.748666 72.8631 2.246C71.1916 3.74333 70.1759 5.615 69.8162 7.83898C69.4565 10.085 69.8585 12.0007 71.0434 13.5641C72.2495 15.1275 73.9211 15.8982 76.1005 15.8982Z" fill="#181A20"/>
<path d="M87.8828 1.65147C88.7715 1.65147 88.962 0.264235 88.1156 0.264235C87.7136 0.264235 87.4385 0.506451 87.3327 0.968862C87.2692 1.32118 87.5231 1.65147 87.8828 1.65147ZM85.8938 15.6559L87.7559 4.64614H86.9941L85.1321 15.6559H85.8938Z" fill="#181A20"/>
<path d="M92.1602 1.65147C93.0489 1.65147 93.2393 0.264235 92.3929 0.264235C91.9909 0.264235 91.7158 0.506451 91.61 0.968862C91.5465 1.32118 91.8005 1.65147 92.1602 1.65147ZM90.1712 15.6559L92.0332 4.64614H91.2715L89.4094 15.6559H90.1712Z" fill="#181A20"/>
<path d="M98.4688 15.8982C100.013 15.8982 101.389 15.3697 102.616 14.3348C103.864 13.2778 104.626 11.9126 104.901 10.2391C105.176 8.58765 104.88 7.20041 103.97 6.07741C103.06 4.95441 101.854 4.40392 100.352 4.40392C98.8285 4.40392 97.432 4.93239 96.1836 5.98933C94.9352 7.02426 94.1523 8.38947 93.8772 10.063C93.581 11.7365 93.8984 13.1237 94.8082 14.2467C95.7181 15.3477 96.9453 15.8982 98.4688 15.8982ZM98.5323 15.1495C97.2204 15.1715 96.1836 14.7091 95.4007 13.7623C94.6389 12.8154 94.385 11.6043 94.6178 10.151C94.8717 8.69775 95.5488 7.50869 96.6279 6.56184C97.7071 5.615 98.9131 5.15259 100.246 5.15259C101.558 5.15259 102.595 5.615 103.378 6.56184C104.161 7.50869 104.415 8.69775 104.161 10.129C103.928 11.5823 103.251 12.7934 102.151 13.7402C101.071 14.6871 99.8653 15.1495 98.5323 15.1495Z" fill="#181A20"/>
</svg>
